<?xml version="1.0" encoding="UTF-8" standalone="no"?>
<!-- Created with Inkscape (http://www.inkscape.org/) -->

<svg
   width="26.458332mm"
   height="26.458332mm"
   viewBox="0 0 26.458332 26.458332"
   version="1.1"
   id="svg1"
   inkscape:export-batch-path="C:\Users\Akarsh\Documents\Inkscape"
   inkscape:export-batch-name="Switch_"
   xmlns:inkscape="http://www.inkscape.org/namespaces/inkscape"
   xmlns:sodipodi="http://sodipodi.sourceforge.net/DTD/sodipodi-0.dtd"
   xmlns="http://www.w3.org/2000/svg"
   xmlns:svg="http://www.w3.org/2000/svg">
  <sodipodi:namedview
     id="namedview1"
     pagecolor="#505050"
     bordercolor="#ffffff"
     borderopacity="1"
     inkscape:showpageshadow="0"
     inkscape:pageopacity="0"
     inkscape:pagecheckerboard="1"
     inkscape:deskcolor="#505050"
     inkscape:document-units="mm">
    <inkscape:page
       x="0"
       y="0"
       width="26.458332"
       height="26.458332"
       id="page1"
       margin="0"
       bleed="0" />
  </sodipodi:namedview>
  <defs
     id="defs1" />
  <g
     inkscape:label="Layer 1"
     inkscape:groupmode="layer"
     id="layer1">
    <path
       id="Holder"
       style="fill:#3a3e44;fill-opacity:1;stroke-width:2.64583;stroke-linejoin:bevel;stroke-miterlimit:3.6"
       d="M 0.11937256,0 C 0.05319774,0 0,0.05319774 0,0.11937256 V 26.338961 c 0,0.06617 0.05319774,0.119372 0.11937256,0.119372 H 26.338961 c 0.06618,0 0.119372,-0.05319 0.119372,-0.119372 V 0.11937256 C 26.458333,0.05319774 26.405141,0 26.338961,0 Z M 2.2169189,2.1166667 H 24.241414 c 0.05559,0 0.100253,0.044665 0.100253,0.1002522 V 24.241414 c 0,0.05559 -0.04467,0.100253 -0.100253,0.100253 H 2.2169189 c -0.055587,0 -0.1002522,-0.04467 -0.1002522,-0.100253 V 2.2169189 c 0,-0.055587 0.044665,-0.1002522 0.1002522,-0.1002522 z" />
    <path
       id="On"
       style="fill:#264f92;fill-opacity:1;stroke-width:2.64583;stroke-linejoin:bevel;stroke-miterlimit:3.6"
       d="M 0.11937256,26.458333 H 19.847641 c 0.04979,0 0.08988,0.04009 0.08988,0.08988 v 19.728268 c 0,0.04979 -0.04009,0.08988 -0.08988,0.08988 H 0.11937256 c -0.049792,0 -0.089877,-0.04009 -0.089877,-0.08988 V 26.54821 c 0,-0.04979 0.040085,-0.08988 0.089877,-0.08988 z" />
  </g>
</svg>
